<?xml version="1.0" standalone="no"?>
<!DOCTYPE svg PUBLIC "-//W3C//DTD SVG 1.1//EN" "http://www.w3.org/Graphics/SVG/1.1/DTD/svg11.dtd">
<svg xmlns="http://www.w3.org/2000/svg" version="1.1" viewBox="90.00 35.00 100.00 150.00" width="2000" height="2000">
<path fill="#0d7925" d="   M 131.68 89.47   A 0.20 0.20 0.0 0 0 131.84 89.16   C 129.27 85.52 127.96 81.29 128.49 76.78   C 128.91 73.25 128.28 69.31 131.99 67.23   Q 138.83 63.40 146.07 60.87   C 148.09 60.16 150.45 58.80 151.93 57.30   C 156.36 52.80 160.96 48.20 166.10 44.60   Q 167.38 43.71 168.68 43.93   C 171.37 44.40 172.11 46.96 173.09 49.14   Q 173.66 50.40 173.99 49.06   Q 174.24 48.02 174.24 47.01   Q 174.25 46.23 174.91 46.65   Q 175.04 46.73 175.19 46.70   Q 175.49 46.66 175.60 46.38   Q 176.15 45.02 177.53 44.31   Q 180.35 42.87 182.81 41.24   Q 183.23 40.97 183.73 40.97   L 184.13 40.97   Q 184.53 40.97 184.85 40.71   Q 187.49 38.53 190.58 37.92   C 191.13 37.81 191.43 37.54 191.87 37.23   Q 192.12 37.07 192.41 37.04   Q 195.02 36.80 197.60 36.05   Q 199.54 35.49 198.42 37.18   Q 196.79 39.62 195.81 42.17   Q 195.29 43.51 193.94 44.17   A 0.71 0.70 65.8 0 0 193.60 45.07   Q 193.66 45.23 193.67 45.40   Q 193.68 45.90 193.18 45.95   C 192.57 46.01 192.02 45.89 191.45 46.23   Q 188.08 48.28 185.45 52.09   Q 183.85 54.39 180.97 55.10   Q 180.40 55.24 180.35 55.82   Q 180.34 55.96 180.28 56.09   Q 180.15 56.37 179.92 56.56   Q 178.30 57.96 177.13 59.82   Q 176.86 60.25 177.00 60.74   C 179.31 68.80 182.60 76.49 185.75 84.24   C 186.88 87.01 186.16 89.79 183.22 90.90   Q 178.83 92.55 175.18 94.96   A 0.72 0.72 0.0 0 0 175.07 96.07   Q 177.37 98.36 178.95 101.28   C 180.61 104.34 184.33 106.59 186.95 108.95   C 190.62 112.26 191.49 117.90 190.91 122.52   C 189.76 131.60 189.35 140.69 187.60 149.46   Q 186.19 156.49 186.13 163.44   Q 186.10 166.08 185.11 168.61   Q 183.96 171.51 183.95 175.07   C 183.94 177.74 181.71 180.01 179.00 180.01   Q 149.74 180.00 120.56 180.00   Q 120.03 180.00 119.87 179.50   C 118.53 175.42 118.12 171.44 119.33 167.18   Q 120.56 162.84 120.75 158.24   C 120.79 157.04 120.47 155.91 119.57 155.07   Q 116.30 151.99 114.74 147.87   Q 114.26 146.62 112.93 146.72   Q 107.28 147.14 101.43 147.01   C 97.73 146.94 94.78 146.15 91.81 143.92   Q 82.14 136.67 73.75 127.46   Q 72.27 125.83 73.80 124.14   Q 78.57 118.86 83.70 113.78   A 1.75 1.74 64.8 0 0 84.21 112.35   Q 83.47 104.87 83.36 96.89   Q 83.36 96.26 82.73 96.26   L 66.01 96.26   Q 63.42 96.26 63.02 93.70   Q 62.95 93.27 62.95 92.83   Q 62.92 89.47 66.28 89.47   L 83.46 89.46   Q 83.97 89.46 84.27 89.05   L 84.90 88.21   A 1.51 1.50 11.9 0 1 85.81 87.62   Q 90.99 86.52 95.87 86.00   Q 100.36 85.52 103.62 87.56   Q 104.04 87.83 104.51 87.65   Q 112.38 84.74 119.21 89.13   Q 119.71 89.45 120.31 89.45   L 131.68 89.47   Z   M 124.48 96.23   A 0.06 0.06 0.0 0 0 124.43 96.32   L 127.28 101.38   A 0.63 0.63 0.0 0 0 128.25 101.54   Q 130.72 99.28 134.22 98.97   Q 135.36 98.87 135.03 97.77   L 134.93 97.44   A 1.65 1.64 81.8 0 0 133.37 96.27   L 124.48 96.23   Z   M 115.60 111.63   L 111.23 105.01   Q 110.69 104.18 109.81 104.65   Q 105.44 106.99 101.17 110.28   C 99.23 111.77 99.23 114.16 100.02 116.24   A 1.39 1.39 0.0 0 0 101.83 117.04   Q 107.57 114.78 113.71 113.11   C 114.40 112.92 114.87 112.42 115.48 112.09   A 0.33 0.32 -30.9 0 0 115.60 111.63   Z"/>
</svg>
