<?xml version="1.0" standalone="no"?>
<!DOCTYPE svg PUBLIC "-//W3C//DTD SVG 1.1//EN" "http://www.w3.org/Graphics/SVG/1.1/DTD/svg11.dtd">
<svg xmlns="http://www.w3.org/2000/svg" xmlns:xlink="http://www.w3.org/1999/xlink" version="1.1" id="Calque_1" x="0px" y="0px" viewBox="0 0 228 205" style="enable-background:new 0 0 228 205;" xml:space="preserve" width="228" height="205">
<style type="text/css">
	.st0{fill:#454444;}
	.st1{fill:#3AAA35;}
	.st2{fill:#B2B2B2;}
	.st3{fill:#1D71B8;}
	.st4{fill:#FDC533;}
</style>
<g>
	<polygon class="st0" points="204.91,111.8 204.91,116.1 204.91,120.4 204.91,124.7 204.91,129 204.91,133.3 200.612,133.3    196.314,133.3 192.016,133.3 187.718,133.3 183.42,133.3 183.42,137.6 183.42,141.9 187.718,141.9 192.016,141.9 196.314,141.9    200.612,141.9 204.91,141.9 209.208,141.9 213.506,141.9 213.506,137.6 213.506,133.3 213.506,129 213.506,124.7 213.506,120.4    213.506,116.1 213.506,111.8 209.208,111.8  "/>
	<polygon class="st0" points="192.016,8.6 196.314,8.6 200.612,8.6 204.91,8.6 204.91,12.9 204.91,17.2 204.91,21.5 204.91,25.8    204.91,30.1 209.208,30.1 213.506,30.1 213.506,25.8 213.506,21.5 213.506,17.2 213.506,12.9 213.506,8.6 213.506,4.3 213.506,0    209.208,0 204.91,0 200.612,0 196.314,0 192.016,0 187.718,0 183.42,0 183.42,4.3 183.42,8.6 187.718,8.6  "/>
	<polygon class="st1" points="80.265,141.9 84.563,141.9 88.861,141.9 93.159,141.9 97.457,141.9 101.755,141.9 101.755,137.6    101.755,133.3 97.457,133.3 93.159,133.3 88.861,133.3 84.563,133.3 80.265,133.3 80.265,129 80.265,124.7 80.265,120.4    80.265,116.1 80.265,111.8 75.967,111.8 71.669,111.8 71.669,116.1 71.669,120.4 71.669,124.7 71.669,129 71.669,133.3    71.669,137.6 71.669,141.9 75.967,141.9  "/>
	<polygon class="st0" points="80.265,30.1 80.265,25.8 80.265,21.5 80.265,17.2 80.265,12.9 80.265,8.6 84.563,8.6 88.861,8.6    93.159,8.6 97.457,8.6 101.755,8.6 101.755,4.3 101.755,0 97.457,0 93.159,0 88.861,0 84.563,0 80.265,0 75.967,0 71.669,0    71.669,4.3 71.669,8.6 71.669,12.9 71.669,17.2 71.669,21.5 71.669,25.8 71.669,30.1 75.967,30.1  "/>
	<polygon class="st0" points="50.178,136.8 38.883,136.8 38.883,129.1 48.079,129.1 48.079,124.1 38.883,124.1 38.883,116.9    49.478,116.9 50.178,111.8 31.786,111.8 31.786,141.9 50.178,141.9  "/>
	<path class="st0" d="M116.049,130.3l3.199-13.3l3.199,13.3H116.049z M115.05,111.8l-8.996,30.1h7.297l1.499-6.5h8.696l1.599,6.5   h7.497l-8.996-30.1C123.646,111.8,115.05,111.8,115.05,111.8z"/>
	<path class="st0" d="M39.283,170.8l3.498-14.6l3.498,14.6H39.283z M38.183,150.5l-9.896,33.1h8.096l1.699-7.1h9.596l1.699,7.1   h8.296l-9.896-33.1H38.183z"/>
	<polygon class="st0" points="68.77,177.4 68.77,150.5 60.973,150.5 60.973,183.6 80.765,183.6 81.564,177.4  "/>
	<polygon class="st0" points="94.059,150.5 86.262,150.5 86.262,183.6 106.053,183.6 106.853,177.4 94.059,177.4  "/>
	<polygon class="st0" points="131.043,156.1 131.842,150.5 111.651,150.5 111.651,183.6 131.842,183.6 131.842,177.9 119.448,177.9    119.448,169.5 129.543,169.5 129.543,164 119.448,164 119.448,156.1  "/>
	<polygon class="st2" points="24.389,52.1 27.488,54.1 28.388,53.1 25.089,50.4 23.69,50.4 20.291,53.1 21.191,54.1  "/>
	<polygon class="st2" points="44.98,71.2 37.783,71.2 37.783,55.9 35.684,55.9 35.684,73.1 44.68,73.1  "/>
	<polygon class="st2" points="57.375,71.4 50.178,71.4 50.178,65.2 56.075,65.2 56.075,63.5 50.178,63.5 50.178,57.7 56.975,57.7    57.275,55.9 48.079,55.9 48.079,73.1 57.375,73.1  "/>
	<polygon class="st1" points="224.102,71.4 220.303,67.5 216.405,63.6 212.507,59.8 208.708,55.9 204.81,52 200.912,55.9    197.014,59.8 193.215,63.6 189.317,67.5 185.419,63.6 181.62,59.8 177.722,55.9 173.824,52 170.025,55.9 166.127,59.8    162.229,63.6 158.331,67.5 154.532,71.4 150.634,75.2 154.532,79.1 158.331,83 162.229,79.1 166.127,75.2 170.025,71.4    173.824,67.5 177.722,71.4 181.62,75.2 185.419,79.1 189.317,83 193.215,79.1 197.014,75.2 200.912,71.4 204.81,67.5 208.708,71.4    212.507,75.2 216.405,79.1 220.303,83 224.102,79.1 228,75.2  "/>
	<polygon class="st3" points="158.331,52 162.229,48.2 166.127,44.3 170.025,40.4 173.824,36.5 177.722,40.4 181.62,44.3    185.419,48.2 189.317,52 193.215,48.2 197.014,44.3 193.215,40.4 189.317,36.5 185.419,32.7 181.62,28.8 177.722,24.9    173.824,21.1 170.025,24.9 166.127,28.8 162.229,32.7 158.331,36.5 154.532,40.4 150.634,44.3 154.532,48.2  "/>
	<polygon class="st2" points="142.937,67.5 146.736,63.6 150.634,59.8 146.736,55.9 142.937,52 139.039,48.2 135.141,44.3    131.342,40.4 127.444,36.5 123.546,40.4 119.648,44.3 123.546,48.2 127.444,52 131.342,55.9 135.141,59.8 131.342,63.6    127.444,67.5 123.546,71.4 119.648,75.2 123.546,79.1 127.444,83 131.342,79.1 135.141,75.2 139.039,71.4  "/>
	<polygon class="st2" points="49.878,198 53.576,198 53.576,196.9 49.878,196.9 49.878,193.3 54.176,193.3 54.276,192.2    48.579,192.2 48.579,202.9 54.376,202.9 54.376,201.8 49.878,201.8  "/>
	<path class="st2" d="M69.669,199.1l1.799-5.8l1.799,5.8H69.669z M70.569,192.2l-3.498,10.7h1.399l0.8-2.8h4.198l0.8,2.8h1.399   l-3.498-10.8h-1.599V192.2z"/>
	<rect x="77.166" y="192.2" class="st2" width="1.299" height="10.8"/>
	<polygon class="st2" points="90.36,193.3 93.459,193.3 93.459,202.9 94.858,202.9 94.858,193.3 97.857,193.3 98.057,192.2    90.36,192.2  "/>
	<polygon class="st2" points="109.152,198 112.751,198 112.751,196.9 109.152,196.9 109.152,193.3 113.35,193.3 113.55,192.2    107.753,192.2 107.753,202.9 113.65,202.9 113.65,201.8 109.152,201.8  "/>
	<path class="st2" d="M116.849,199.1l1.799-5.8l1.799,5.8H116.849z M117.748,192.2L114.25,203h1.399l0.8-2.8h4.198l0.8,2.8h1.399   l-3.498-10.8H117.748z"/>
	<path class="st2" d="M4.698,198.1h1.999v3.4c-0.6,0.3-1.299,0.5-2.099,0.5c-1,0-1.799-0.4-2.299-1.1c-0.5-0.7-0.8-1.8-0.8-3.4   c0-1,0.1-1.9,0.4-2.5c0.3-0.7,0.7-1.1,1.199-1.4c0.5-0.3,1-0.5,1.599-0.5c0.5,0,0.9,0.1,1.299,0.2c0.4,0.1,0.7,0.4,1.1,0.7l0.8-0.8   c-0.5-0.4-1-0.7-1.499-0.9s-1.1-0.3-1.799-0.3c-0.8,0-1.599,0.2-2.299,0.6C1.599,193,1,193.7,0.6,194.5c-0.4,0.8-0.6,1.8-0.6,3   c0,1.8,0.4,3.2,1.199,4.2c0.8,0.9,1.899,1.4,3.199,1.4s2.499-0.3,3.498-0.9V197H4.598L4.698,198.1z"/>
	<path class="st2" d="M13.194,197.2h-1.599v-4h1.499c0.9,0,1.599,0.2,1.999,0.5s0.6,0.8,0.6,1.5s-0.2,1.2-0.6,1.6   C14.694,197.1,14.094,197.2,13.194,197.2 M16.493,197c0.4-0.5,0.6-1.1,0.6-1.8c0-1-0.3-1.7-1-2.3c-0.7-0.5-1.699-0.8-2.999-0.8   h-2.799v10.8h1.299v-4.6h1.799l2.599,4.6h1.599l-2.899-4.9C15.593,197.8,16.093,197.5,16.493,197"/>
	<path class="st2" d="M25.389,200.9c-0.5,0.7-1.299,1.1-2.299,1.1c-0.9,0-1.699-0.4-2.199-1.1c-0.5-0.7-0.8-1.8-0.8-3.3   s0.3-2.6,0.8-3.4c0.5-0.7,1.299-1.1,2.299-1.1s1.699,0.4,2.299,1.1c0.5,0.7,0.8,1.8,0.8,3.4   C26.189,199.1,25.889,200.2,25.389,200.9 M25.489,192.6c-0.7-0.4-1.499-0.6-2.399-0.6s-1.699,0.2-2.399,0.7   c-0.7,0.4-1.199,1.1-1.599,1.9c-0.4,0.8-0.6,1.8-0.6,3s0.2,2.2,0.6,3s0.9,1.5,1.599,1.9s1.499,0.6,2.399,0.6s1.699-0.2,2.399-0.6   c0.7-0.4,1.199-1.1,1.599-1.9c0.4-0.8,0.6-1.8,0.6-3s-0.2-2.2-0.6-3C26.688,193.7,26.089,193.1,25.489,192.6"/>
	<path class="st2" d="M35.684,199.4c0,0.9-0.2,1.5-0.6,1.9c-0.4,0.4-1,0.6-1.799,0.6c-1.599,0-2.299-0.9-2.299-2.6v-7.2h-1.299v7.3   c0,1.1,0.3,2,1,2.6c0.6,0.7,1.499,1,2.699,1s2.099-0.3,2.699-1c0.7-0.7,1-1.5,1-2.6v-7.3h-1.399   C35.684,192.1,35.684,199.4,35.684,199.4z"/>
	<path class="st2" d="M44.58,197.3c-0.5,0.3-1.1,0.5-1.999,0.5h-1.399v-4.6h1.399c0.9,0,1.499,0.2,1.999,0.5   c0.5,0.4,0.7,0.9,0.7,1.7C45.28,196.4,45.08,197,44.58,197.3 M45.58,193c-0.7-0.5-1.699-0.8-2.999-0.8h-2.799V203h1.299v-4h1.399   c1.299,0,2.299-0.3,2.999-0.9c0.7-0.6,1.1-1.4,1.1-2.6C46.68,194.4,46.38,193.5,45.58,193"/>
	<path class="st2" d="M65.171,197.4c-0.4-0.2-1-0.5-1.699-0.7c-0.6-0.2-1.1-0.4-1.499-0.6c-0.3-0.2-0.6-0.4-0.7-0.6   c-0.1-0.2-0.2-0.5-0.2-0.8c0-0.5,0.2-0.9,0.6-1.2c0.4-0.3,0.9-0.4,1.399-0.4c0.5,0,0.9,0.1,1.299,0.2c0.4,0.2,0.8,0.4,1.199,0.7   l0.7-0.8c-0.5-0.4-0.9-0.7-1.399-0.9s-1.1-0.3-1.799-0.3c-0.6,0-1.199,0.1-1.699,0.4c-0.5,0.2-0.9,0.6-1.199,1   c-0.3,0.4-0.4,0.9-0.4,1.4c0,0.8,0.3,1.4,0.8,1.9c0.5,0.5,1.299,0.9,2.399,1.2c0.6,0.2,1.1,0.4,1.399,0.6c0.3,0.2,0.6,0.4,0.7,0.7   c0.1,0.3,0.2,0.6,0.2,0.9c0,0.6-0.2,1.1-0.7,1.5s-1,0.5-1.699,0.5c-0.6,0-1.1-0.1-1.499-0.3s-0.9-0.5-1.299-0.8l-0.8,0.9   c0.9,0.9,2.199,1.4,3.598,1.4c0.8,0,1.399-0.1,1.999-0.4c0.6-0.3,1-0.6,1.299-1.1s0.5-1,0.5-1.7c0-0.6-0.1-1.2-0.4-1.6   C65.971,197.9,65.571,197.6,65.171,197.4"/>
	<path class="st2" d="M87.562,198.2c0,0.6,0,1.2,0.1,1.8c0,0.7,0.1,1.1,0.1,1.4l-4.598-9.3h-1.799v10.8h1.299v-5.2   c0-1.3-0.1-2.7-0.2-4.1l4.498,9.3h1.799v-10.8h-1.299v6.1H87.562z"/>
	<path class="st2" d="M103.555,201.4c0,0.5,0,0.9-0.1,1.2s-0.3,0.6-0.5,0.8c-0.2,0.2-0.6,0.4-1.1,0.6l0.4,1   c0.6-0.2,1.1-0.5,1.499-0.7c0.4-0.3,0.7-0.6,0.9-1.1c0.2-0.5,0.3-1,0.3-1.7v-9.3h-1.399C103.555,192.2,103.555,201.4,103.555,201.4   z"/>
	<path class="st2" d="M130.543,198.2c0,0.6,0,1.2,0.1,1.8c0,0.7,0.1,1.1,0.1,1.4l-4.598-9.3h-1.799v10.8h1.299v-5.2   c0-1.3-0.1-2.7-0.2-4.1l4.498,9.3h1.799v-10.8h-1.299v6.1H130.543z"/>
	<path class="st0" d="M13.694,178.6c-3.299,0-5.897-1.2-8.296-3.2l-3.898,4.3c2.699,2.6,6.797,4.7,12.495,4.7   c8.196,0,13.094-4.3,13.094-10.4c0-6.1-3.598-8.7-9.796-10.7c-5.098-1.6-6.397-2.5-6.397-4.6s1.699-3.2,4.398-3.2   s4.898,0.9,7.197,2.8l3.598-4.2c-2.899-2.8-6.397-4.2-11.395-4.2c-6.797,0-11.895,3.7-11.895,9.5c0,4.9,2.699,8,10.096,10.3   c4.798,1.5,5.997,2.6,5.997,5C18.892,177,16.893,178.6,13.694,178.6"/>
	<path class="st0" d="M9.896,117h2.199c4.098,0,7.197,1.7,7.197,9.7s-2.899,10-7.097,10H9.896V117z M26.688,126.7   c0-12.4-7.597-14.9-15.593-14.9H2.799v30.1h8.996C19.391,141.9,26.688,138.8,26.688,126.7"/>
	<path class="st2" d="M37.084,83.4h2.199c2.699,0,4.298,0.9,4.298,3.6c0,3-1.799,3.8-4.398,3.8h-2.099V83.4z M37.084,92.5h2.299   c3.798,0,6.597-1.6,6.597-5.5c0-3.6-2.499-5.3-6.597-5.3h-4.398v17.2h2.099V92.5z"/>
	<path class="st2" d="M18.092,81.7v11.7c0,3.4,1.999,5.8,5.897,5.8s5.997-2.4,5.997-5.8V81.7h-2.199v11.6c0,2.7-1.199,4.1-3.798,4.1   s-3.798-1.4-3.798-4.1V81.7H18.092z"/>
	<path class="st2" d="M8.596,97.4c-1.899,0-3.299-0.7-4.598-1.8L2.799,97c1.399,1.4,3.299,2.2,5.797,2.2   c3.798,0,6.097-2.1,6.097-5.1c0-3.2-2.199-4.3-5.098-5.2c-3.099-0.9-3.798-1.7-3.798-3.2c0-1.7,1.399-2.6,3.199-2.6   c1.499,0,2.699,0.4,3.998,1.5l1.199-1.3c-1.399-1.3-2.899-2-5.198-2c-3.099,0-5.298,1.9-5.298,4.4c0,2.6,1.699,3.9,5.098,4.9   c2.999,0.9,3.798,1.7,3.798,3.5C12.395,96.3,10.695,97.4,8.596,97.4"/>
	<path class="st2" d="M5.897,57.6h2.199c2.699,0,4.298,0.9,4.298,3.6c0,3-1.799,3.8-4.398,3.8H5.897V57.6z M5.897,66.7h2.299   c3.798,0,6.597-1.6,6.597-5.5c0-3.6-2.499-5.3-6.597-5.3H3.798v17.2h2.199v-6.4H5.897z"/>
	<path class="st2" d="M24.389,57.4c2.999,0,4.898,2.1,4.898,7.1s-1.899,7.1-4.898,7.1c-2.899,0-4.898-2.1-4.898-7.1   S21.391,57.4,24.389,57.4 M24.389,73.4c4.298,0,7.197-3.2,7.197-8.9c0-5.8-2.899-8.9-7.197-8.9s-7.197,3.3-7.197,9   C17.192,70.3,20.091,73.4,24.389,73.4"/>
	<path class="st4" d="M169.326,90.7c0,6-4.898,10.9-10.895,10.9c-5.997,0-10.895-4.9-10.895-10.9h-5.498h-5.498   c0,12.1,9.796,21.9,21.89,21.9c5.997,0,11.495-2.4,15.493-6.4c4.298-4.3,6.397-9.1,6.397-15.5h-5.498H169.326z"/>
</g>
</svg>